<svg xmlns="http://www.w3.org/2000/svg" width="74.892" height="58.25" viewBox="0 0 74.892 58.25">
  <path id="Icon_awesome-glasses" data-name="Icon awesome-glasses" d="M74.645,34.544l-5.9-23.626A11.435,11.435,0,0,0,54.031,2.838L52.049,3.5A2.079,2.079,0,0,0,50.733,6.13L51.391,8.1a2.08,2.08,0,0,0,2.63,1.316l1.714-.571a5.56,5.56,0,0,1,4.311.225,5.152,5.152,0,0,1,2.649,3.357l5,20a35.983,35.983,0,0,0-10.558-1.62A34.1,34.1,0,0,0,42.2,34.288H32.69A34.072,34.072,0,0,0,17.756,30.81,35.985,35.985,0,0,0,7.2,32.43l5-20a5.148,5.148,0,0,1,2.65-3.356,5.557,5.557,0,0,1,4.31-.225l1.712.571A2.08,2.08,0,0,0,23.5,8.1l.658-1.974A2.079,2.079,0,0,0,22.842,3.5l-1.983-.661A11.435,11.435,0,0,0,6.142,10.915L.247,34.544A8.35,8.35,0,0,0,0,36.558v9.134A14.894,14.894,0,0,0,14.978,60.5H19.8A14.91,14.91,0,0,0,34.742,46.8l.381-5.023h4.648l.381,5.023A14.908,14.908,0,0,0,55.087,60.5h4.826A14.894,14.894,0,0,0,74.892,45.693V36.559A8.352,8.352,0,0,0,74.645,34.544ZM26.444,46.17A6.617,6.617,0,0,1,19.8,52.178H14.978a6.581,6.581,0,0,1-6.657-6.487V40.811a28.225,28.225,0,0,1,9.437-1.68,25.51,25.51,0,0,1,9.092,1.68Zm40.127-.477a6.58,6.58,0,0,1-6.657,6.485H55.087a6.615,6.615,0,0,1-6.639-6.008l-.407-5.359a25.519,25.519,0,0,1,9.095-1.68,28.223,28.223,0,0,1,9.433,1.681v4.881Z" transform="translate(0 -2.249)" fill="#255495"/>
</svg>
