<svg xmlns="http://www.w3.org/2000/svg" width="52.63" height="60.081" viewBox="0 0 52.63 60.081">
  <path id="Icon_material-date-range" data-name="Icon material-date-range" d="M22.043,30.037H16.2v6.008h5.848Zm11.7,0H27.891v6.008h5.848Zm11.7,0H39.587v6.008h5.848ZM51.282,9.008H48.358V3H42.511V9.008H19.119V3H13.272V9.008H10.348a5.9,5.9,0,0,0-5.819,6.008L4.5,57.073a5.928,5.928,0,0,0,5.848,6.008H51.282a5.947,5.947,0,0,0,5.848-6.008V15.016A5.947,5.947,0,0,0,51.282,9.008Zm0,48.065H10.348V24.028H51.282Z" transform="translate(-4.5 -3)" fill="#255495"/>
</svg>
