<svg xmlns="http://www.w3.org/2000/svg" width="70.892" height="81.019" viewBox="0 0 70.892 81.019">
  <path id="Icon_awesome-calendar-alt" data-name="Icon awesome-calendar-alt" d="M0,73.424a7.6,7.6,0,0,0,7.6,7.6H63.3a7.6,7.6,0,0,0,7.6-7.6V30.382H0ZM50.637,42.409a1.9,1.9,0,0,1,1.9-1.9h6.33a1.9,1.9,0,0,1,1.9,1.9v6.33a1.9,1.9,0,0,1-1.9,1.9h-6.33a1.9,1.9,0,0,1-1.9-1.9Zm0,20.255a1.9,1.9,0,0,1,1.9-1.9h6.33a1.9,1.9,0,0,1,1.9,1.9v6.33a1.9,1.9,0,0,1-1.9,1.9h-6.33a1.9,1.9,0,0,1-1.9-1.9ZM30.382,42.409a1.9,1.9,0,0,1,1.9-1.9h6.33a1.9,1.9,0,0,1,1.9,1.9v6.33a1.9,1.9,0,0,1-1.9,1.9h-6.33a1.9,1.9,0,0,1-1.9-1.9Zm0,20.255a1.9,1.9,0,0,1,1.9-1.9h6.33a1.9,1.9,0,0,1,1.9,1.9v6.33a1.9,1.9,0,0,1-1.9,1.9h-6.33a1.9,1.9,0,0,1-1.9-1.9ZM10.127,42.409a1.9,1.9,0,0,1,1.9-1.9h6.33a1.9,1.9,0,0,1,1.9,1.9v6.33a1.9,1.9,0,0,1-1.9,1.9h-6.33a1.9,1.9,0,0,1-1.9-1.9Zm0,20.255a1.9,1.9,0,0,1,1.9-1.9h6.33a1.9,1.9,0,0,1,1.9,1.9v6.33a1.9,1.9,0,0,1-1.9,1.9h-6.33a1.9,1.9,0,0,1-1.9-1.9ZM63.3,10.127H55.7v-7.6A2.539,2.539,0,0,0,53.169,0H48.105a2.539,2.539,0,0,0-2.532,2.532v7.6H25.319v-7.6A2.539,2.539,0,0,0,22.787,0H17.723a2.539,2.539,0,0,0-2.532,2.532v7.6H7.6a7.6,7.6,0,0,0-7.6,7.6v7.6H70.892v-7.6A7.6,7.6,0,0,0,63.3,10.127Z" fill="#255495"/>
</svg>
